<?xml version="1.0" standalone="no"?>
<!DOCTYPE svg PUBLIC "-//W3C//DTD SVG 20010904//EN"
 "http://www.w3.org/TR/2001/REC-SVG-20010904/DTD/svg10.dtd">
<svg version="1.0" xmlns="http://www.w3.org/2000/svg"
 width="522.000000pt" height="69.000000pt" viewBox="0 0 522.000000 69.000000"
 preserveAspectRatio="xMidYMid meet">
<metadata>
Created by potrace 1.16, written by Peter Selinger 2001-2019
</metadata>
<g transform="translate(0.000000,69.000000) scale(0.100000,-0.100000)"
fill="#000000" stroke="none">
<path d="M1132 649 c-100 -50 -120 -161 -43 -238 25 -25 64 -47 124 -70 100
-37 117 -51 117 -92 0 -25 -6 -33 -37 -46 -33 -13 -43 -14 -78 -2 -32 11 -42
21 -51 49 -11 34 -13 35 -73 38 l-61 3 0 -31 c0 -59 45 -116 112 -145 54 -22
181 -20 235 5 61 27 85 70 80 143 -2 37 -10 67 -24 85 -22 29 -107 76 -190
105 -81 27 -96 84 -29 112 54 23 116 -5 116 -52 0 -22 3 -23 66 -23 l67 0 -6
40 c-12 91 -83 139 -207 140 -56 0 -86 -5 -118 -21z"/>
<path d="M20 386 l0 -276 65 0 65 0 0 95 0 95 38 0 c37 0 37 -1 85 -95 l49
-95 69 0 c38 0 69 3 69 6 0 3 -25 53 -56 111 l-56 105 35 29 c43 35 61 85 55
151 -5 52 -27 89 -72 122 -24 19 -44 21 -187 24 l-159 3 0 -275z m270 154 c21
-21 26 -69 10 -100 -12 -22 -61 -40 -111 -40 l-39 0 0 80 0 80 60 0 c47 0 64
-4 80 -20z"/>
<path d="M510 385 l0 -275 60 0 60 0 0 120 0 120 105 0 105 0 0 -120 0 -120
65 0 65 0 0 275 0 275 -65 0 -65 0 0 -110 0 -110 -105 0 -105 0 0 110 0 110
-60 0 -60 0 0 -275z"/>
<path d="M1742 629 c-100 -50 -120 -161 -43 -238 25 -25 64 -47 124 -70 100
-37 117 -51 117 -92 0 -25 -6 -33 -37 -46 -33 -13 -43 -14 -78 -2 -32 11 -42
21 -51 49 -11 34 -13 35 -73 38 l-61 3 0 -31 c0 -59 45 -116 112 -145 54 -22
181 -20 235 5 61 27 85 70 80 143 -2 37 -10 67 -24 85 -22 29 -107 76 -190
105 -81 27 -96 84 -29 112 54 23 116 -5 116 -52 0 -22 3 -23 66 -23 l67 0 -6
40 c-12 91 -83 139 -207 140 -56 0 -86 -5 -118 -21z"/>
<path d="M2715 633 c-92 -48 -135 -133 -135 -268 0 -184 84 -285 237 -285 166
0 255 118 240 320 -8 118 -52 195 -132 231 -51 24 -167 25 -210 2z m164 -109
c17 -14 35 -42 41 -62 13 -47 13 -146 0 -193 -31 -110 -153 -121 -194 -18 -21
51 -21 177 -1 227 31 74 97 94 154 46z"/>
<path d="M2100 590 l0 -50 80 0 80 0 0 -225 0 -225 65 0 65 0 0 225 0 225 85
0 85 0 0 50 0 50 -230 0 -230 0 0 -50z"/>
<path d="M3120 365 l0 -275 65 0 65 0 0 95 0 95 40 0 39 0 48 -92 48 -93 73
-3 73 -3 -60 114 -61 114 25 13 c43 23 67 73 68 139 0 75 -24 118 -83 149 -40
20 -59 22 -192 22 l-148 0 0 -275z m273 157 c30 -33 32 -75 4 -107 -20 -24
-33 -29 -85 -33 l-62 -4 0 81 0 81 63 0 c49 0 68 -4 80 -18z"/>
<path d="M3610 365 l0 -275 190 0 190 0 0 45 0 45 -125 0 -125 0 0 75 0 75
110 0 110 0 0 45 0 45 -110 0 -110 0 0 60 0 60 125 0 125 0 0 50 0 50 -190 0
-190 0 0 -275z"/>
<path d="M4225 379 c-38 -11 -94 -64 -111 -106 -39 -91 10 -208 101 -243 41
-16 118 -14 152 4 66 34 103 96 103 172 0 127 -118 210 -245 173z"/>
<path d="M4942 369 c-66 -33 -97 -87 -97 -169 0 -58 4 -71 29 -104 42 -56 81
-76 149 -76 64 0 99 14 139 57 83 88 56 239 -54 292 -56 27 -111 27 -166 0z"/>
</g>
</svg>
